PathFileType	4	(X/Y/Z)	Patient4_TMGait_0pt2_01_right_07.trc.trc
DataRate	CameraRate	NumFrames	NumMarkers	Units	OrigDataRate	OrigDataStartFrame	OrigNumFrames
42.042042042042	42.042042042042	4	33	mm	42.042042042042	18	       141
Frame#	Time	Sacral			L.Shoulder			Chest			R.Shoulder			Neck			R.ASIS			L.ASIS			R.Thigh.Superior			R.Thigh.Lateral			R.Thigh.Inferior			R.Patella			L.Thigh.Superior			L.Thigh.Lateral			L.Thigh.Inferior			L.Patella			L.Shank.Superior			L.Shank.Lateral			L.Shank.Inferior			R.Shank.Superior			R.Shank.Lateral			R.Shank.Inferior			R.Heel			R.Midfoot.Superior			R.Midfoot.Lateral			R.Toe			L.Heel			L.Midfoot.Lateral			L.Midfoot.Superior			L.Toe			L.Elbow			L.Wrist			R.Elbow			R.Wrist			
		X1	Y1	Z1	X2	Y2	Z2	X3	Y3	Z3	X4	Y4	Z4	X5	Y5	Z5	X6	Y6	Z6	X7	Y7	Z7	X8	Y8	Z8	X9	Y9	Z9	X10	Y10	Z10	X11	Y11	Z11	X12	Y12	Z12	X13	Y13	Z13	X14	Y14	Z14	X15	Y15	Z15	X16	Y16	Z16	X17	Y17	Z17	X18	Y18	Z18	X19	Y19	Z19	X20	Y20	Z20	X21	Y21	Z21	X22	Y22	Z22	X23	Y23	Z23	X24	Y24	Z24	X25	Y25	Z25	X26	Y26	Z26	X27	Y27	Z27	X28	Y28	Z28	X29	Y29	Z29	X30	Y30	Z30	X31	Y31	Z31	X32	Y32	Z32	X33	Y33	Z33	

18	14.314357142857	794.826421250955	1003.239180403680	412.545686477554	1005.924142619927	1433.964244030992	265.343997069900	1077.167215260725	1362.409121678180	440.775827564503	966.042024579077	1433.576304227177	598.787558672899	960.266204016401	1492.552152651410	420.267774764282	1008.679951937969	941.072650997708	561.704768217176	1030.670412643663	959.514860231022	287.351120785268	1088.081363670222	764.052643745400	527.001108743525	1036.441626334682	643.726901191406	595.034973146970	1119.833902772269	602.082681162823	513.080124765391	1144.013528118086	505.716979200008	532.408729383293	1062.104692621256	737.676896424514	329.966229158122	974.493159111201	621.330788902861	265.545874901623	1042.160488643183	543.814230828857	344.286820296560	1035.950387118525	473.032137285991	355.195857685259	998.582813036427	402.388072159273	344.819684039402	899.916896997110	298.511901662469	289.446121325003	926.163782416856	184.692255501598	366.906948556732	1102.338188694098	418.908981526881	550.925393114526	1016.944939583735	331.870708549946	621.125129687318	1055.678102444750	226.165984506129	576.195582092801	911.263388863676	64.527172761612	559.055047075910	1084.607531684122	111.479179190819	598.056235666076	993.328885818467	54.056607750600	635.276434715761	1200.621808933870	57.667837610212	631.348471068053	778.329168203786	38.901431671970	400.984086411917	855.879510936558	36.510288667557	323.852692783488	939.265889897604	95.743781277813	355.365408995461	1067.873929389685	41.182219536074	330.871538480495	1134.318051687064	1128.307431707699	118.046281229229	1387.973040665242	1108.368786788897	170.222278648427	840.027253724489	1101.689437562688	688.070500032625	845.651344877710	839.080733355504	673.265906369448	
19	14.338142857143	795.951279178457	1003.653205009693	415.634291679594	1008.986736904078	1433.750001259374	269.408558702626	1078.962490058590	1362.385218213894	445.315864715678	967.319477203577	1434.386465259146	602.538761879153	962.568809080314	1492.598697187074	424.010486007185	1008.685486787994	940.948740723188	566.185690881450	1032.332879511348	959.303745153763	291.817289270308	1086.924621697203	763.243606113970	532.684810118496	1033.458251021427	643.242315562155	600.442899659304	1117.443449006262	601.469305918485	519.536103706077	1141.262487658348	507.095335312225	537.939313910811	1061.104840886872	736.750121061154	333.857494709835	972.598263989008	621.580810065307	267.901436371658	1038.947627542143	542.978131828681	346.418617132244	1031.849448514991	472.478473770691	356.994658550915	994.607489325132	402.132271219102	346.156072298076	895.629563159041	298.757240634660	290.275304344860	921.574762190229	184.582701485584	367.388406326265	1103.872684092308	419.091236919437	555.914750179158	1023.435766574986	327.353063136029	626.763699216828	1066.516918630589	223.570508885625	580.427952013810	928.730060725306	56.093557504579	563.642920587412	1100.928315893586	108.707569375049	601.030710118465	1012.016437658130	47.735827977643	638.894570032587	1219.537478252986	58.849940315980	632.802052434802	773.521964509955	38.858107448035	400.909945013012	851.043779387831	36.454711964208	323.827949826959	934.438365072194	95.719553360399	355.414330823998	1063.039388314039	41.169584327176	330.882120642007	1140.887797526116	1131.092486130507	121.445787713980	1394.524251104654	1124.427222743344	174.279789287454	830.890310974422	1106.997181583702	688.202730868071	826.122630944345	844.141415724067	669.137599212888	
20	14.361928571429	797.379236612652	1003.815543536990	419.128483008334	1012.089857793735	1433.343607108896	273.966753755662	1080.849016563917	1362.232359241342	450.343781005620	968.681018312598	1435.009635421470	606.801809531950	964.904134704218	1492.467665069156	428.231098202946	1008.993529994008	940.558232679337	571.036492416476	1034.299375203038	958.989323672190	296.710472369314	1086.114072563835	762.176857956279	538.525005149772	1030.808376376259	642.403522094865	605.757569673377	1115.456488131021	600.539403183103	525.893498987186	1138.514773920727	507.863533135624	543.268873529592	1060.409918373033	735.694202230451	337.973318802507	970.947432051948	621.773971650510	270.466015551007	1035.914370063108	542.054852696078	348.726365225962	1027.904944353646	471.838060197410	358.948771717082	990.774148257800	401.805298782419	347.625250897735	891.435608592328	298.997765270243	291.141330577641	917.006967998362	184.440464842575	367.906268670846	1104.817853615082	418.918569803650	560.594462931981	1028.693526463047	323.431080761231	631.876746893623	1075.131866427036	221.454897805479	584.109268880168	942.733950404805	50.069469668871	567.353736483849	1113.897470349631	106.424400644727	603.527426777591	1026.791144413262	43.143190793256	641.831304970750	1234.105208849917	59.316707454507	634.037452339206	768.686586719524	38.781157816331	400.828270728944	846.187403398195	36.366235680052	323.791681843792	929.585059070752	95.694124541253	355.452080889516	1058.180472842304	41.190888145762	330.901382100857	1147.244644784431	1133.597807471025	125.336673611444	1400.280927808373	1139.396065542779	178.599258832399	823.588744071874	1111.761289568861	689.101823222829	810.464761708977	849.116711639077	666.298843137263	
21	14.385714285714	799.134991201353	1003.767472809551	423.028996851590	1015.251925755545	1432.797345855437	279.018312194853	1082.855216413793	1361.979389066833	455.855578078943	970.134965261365	1435.448980371210	611.571553776224	967.280125305613	1492.195396348912	432.931283231371	1009.640158923067	939.959072676763	576.241137136493	1036.583535279214	958.594965998548	302.021096243306	1085.684060651571	760.891874416546	544.456122429603	1028.564026252390	641.262007130822	610.916132707984	1113.890668843066	599.329920665954	532.039126314061	1135.863347251001	508.041321095598	548.313645798718	1060.023293046655	734.512218277755	342.295593187592	969.512439283349	621.927104049059	273.249318983742	1033.038445880294	541.062306711215	351.211735954110	1024.098781241830	471.127678777223	361.060136889896	987.055889469348	401.434724831571	349.231720665578	887.313031977027	299.259028376779	292.050934386817	912.455012318838	184.284988490728	368.457285356814	1105.183045690431	418.386655767844	564.898153724719	1032.594925713427	320.057411220244	636.380686480718	1081.394718625191	219.687935544499	587.160174743659	952.985190845762	46.113948729251	570.136671830124	1123.356508525289	104.546601058473	605.483815721014	1037.442617208414	40.033865519202	644.057806245532	1244.348959443372	59.053532002473	635.021265094772	763.825789414324	38.681342307288	400.738387603312	841.316185777337	36.252339314320	323.746792143379	924.714391888917	95.674136550338	355.475248825521	1053.301803442937	41.240810504073	330.927865309774	1153.408675246405	1135.831528020772	129.746438561609	1405.385066078410	1153.195528174833	183.211261470956	818.172288438763	1115.797644832383	690.897691120225	798.632863855515	853.603633071693	665.086485847297	
